<svg xmlns="http://www.w3.org/2000/svg" viewBox="0 0 1200 460" font-family="Inter, Segoe UI, Helvetica, Arial, sans-serif" role="img" aria-labelledby="t d">
<title id="t">Machine learning lifecycle</title><desc id="d">Ten steps from problem definition to model monitoring and maintenance, with the sessions that cover them.</desc>
<defs><marker id="a" viewBox="0 0 10 10" refX="9" refY="5" markerWidth="7" markerHeight="7" orient="auto-start-reverse"><path d="M0 0L10 5L0 10z" fill="#c3c8d0"/></marker></defs>
<line x1="386" y1="61.0" x2="414" y2="61.0" stroke="#c3c8d0" stroke-width="2" marker-end="url(#a)"/>
<line x1="784" y1="61.0" x2="812" y2="61.0" stroke="#c3c8d0" stroke-width="2" marker-end="url(#a)"/>
<line x1="998.0" y1="103" x2="998.0" y2="129" stroke="#c3c8d0" stroke-width="2" marker-end="url(#a)"/>
<line x1="998.0" y1="215" x2="998.0" y2="241" stroke="#c3c8d0" stroke-width="2" marker-end="url(#a)"/>
<line x1="998.0" y1="327" x2="998.0" y2="353" stroke="#c3c8d0" stroke-width="2" marker-end="url(#a)"/>
<line x1="814" y1="397.0" x2="786" y2="397.0" stroke="#c3c8d0" stroke-width="2" marker-end="url(#a)"/>
<line x1="416" y1="397.0" x2="388" y2="397.0" stroke="#c3c8d0" stroke-width="2" marker-end="url(#a)"/>
<line x1="202.0" y1="355" x2="202.0" y2="329" stroke="#c3c8d0" stroke-width="2" marker-end="url(#a)"/>
<line x1="202.0" y1="243" x2="202.0" y2="217" stroke="#c3c8d0" stroke-width="2" marker-end="url(#a)"/>
<rect x="24" y="24" width="356" height="74" rx="8" fill="#262c36" stroke="#7f9fcf" stroke-width="2" />
<rect x="24" y="24" width="62" height="74" rx="8" fill="#7f9fcf"/><rect x="78" y="24" width="8" height="74" fill="#7f9fcf"/>
<text x="55" y="68.0" text-anchor="middle" font-size="20" font-weight="700" fill="#0d1117">01</text>
<text x="100" y="55" font-size="14.5" font-weight="600" fill="#e5e7eb">Problem definition</text>
<text x="100" y="78" font-size="12.5" fill="#c3c8d0">S4, S6</text>
<rect x="422" y="24" width="356" height="74" rx="8" fill="#262c36" stroke="#7f9fcf" stroke-width="2"/>
<rect x="422" y="24" width="62" height="74" rx="8" fill="#7f9fcf"/><rect x="476" y="24" width="8" height="74" fill="#7f9fcf"/>
<text x="453" y="68.0" text-anchor="middle" font-size="20" font-weight="700" fill="#0d1117">02</text>
<text x="498" y="55" font-size="14.5" font-weight="600" fill="#e5e7eb">Data collection</text>
<text x="498" y="78" font-size="12.5" fill="#c3c8d0">S2, S3</text>
<rect x="820" y="24" width="356" height="74" rx="8" fill="#262c36" stroke="#7f9fcf" stroke-width="2"/>
<rect x="820" y="24" width="62" height="74" rx="8" fill="#7f9fcf"/><rect x="874" y="24" width="8" height="74" fill="#7f9fcf"/>
<text x="851" y="68.0" text-anchor="middle" font-size="20" font-weight="700" fill="#0d1117">03</text>
<text x="896" y="55" font-size="14.5" font-weight="600" fill="#e5e7eb">Data cleaning and preprocessing</text>
<text x="896" y="78" font-size="12.5" fill="#c3c8d0">S4</text>
<rect x="820" y="136" width="356" height="74" rx="8" fill="#262c36" stroke="#7f9fcf" stroke-width="2"/>
<rect x="820" y="136" width="62" height="74" rx="8" fill="#7f9fcf"/><rect x="874" y="136" width="8" height="74" fill="#7f9fcf"/>
<text x="851" y="180.0" text-anchor="middle" font-size="20" font-weight="700" fill="#0d1117">04</text>
<text x="896" y="167" font-size="14.5" font-weight="600" fill="#e5e7eb">Exploratory data analysis</text>
<text x="896" y="190" font-size="12.5" fill="#c3c8d0">S5</text>
<rect x="820" y="248" width="356" height="74" rx="8" fill="#262c36" stroke="#7f9fcf" stroke-width="2"/>
<rect x="820" y="248" width="62" height="74" rx="8" fill="#7f9fcf"/><rect x="874" y="248" width="8" height="74" fill="#7f9fcf"/>
<text x="851" y="292.0" text-anchor="middle" font-size="20" font-weight="700" fill="#0d1117">05</text>
<text x="896" y="279" font-size="14.5" font-weight="600" fill="#e5e7eb">Feature engineering and selection</text>
<text x="896" y="302" font-size="12.5" fill="#c3c8d0">S8, S9, S11, S13, S14</text>
<rect x="820" y="360" width="356" height="74" rx="8" fill="#262c36" stroke="#7f9fcf" stroke-width="2" />
<rect x="820" y="360" width="62" height="74" rx="8" fill="#7f9fcf"/><rect x="874" y="360" width="8" height="74" fill="#7f9fcf"/>
<text x="851" y="404.0" text-anchor="middle" font-size="20" font-weight="700" fill="#0d1117">06</text>
<text x="896" y="391" font-size="14.5" font-weight="600" fill="#e5e7eb">Model selection</text>
<text x="896" y="414" font-size="12.5" fill="#c3c8d0">S7–S10</text>
<rect x="422" y="360" width="356" height="74" rx="8" fill="#262c36" stroke="#7f9fcf" stroke-width="2"/>
<rect x="422" y="360" width="62" height="74" rx="8" fill="#7f9fcf"/><rect x="476" y="360" width="8" height="74" fill="#7f9fcf"/>
<text x="453" y="404.0" text-anchor="middle" font-size="20" font-weight="700" fill="#0d1117">07</text>
<text x="498" y="391" font-size="14.5" font-weight="600" fill="#e5e7eb">Model training</text>
<text x="498" y="414" font-size="12.5" fill="#c3c8d0">S6, S8, S10–S15</text>
<rect x="24" y="360" width="356" height="74" rx="8" fill="#262c36" stroke="#7f9fcf" stroke-width="2"/>
<rect x="24" y="360" width="62" height="74" rx="8" fill="#7f9fcf"/><rect x="78" y="360" width="8" height="74" fill="#7f9fcf"/>
<text x="55" y="404.0" text-anchor="middle" font-size="20" font-weight="700" fill="#0d1117">08</text>
<text x="100" y="391" font-size="14.5" font-weight="600" fill="#e5e7eb">Model evaluation and tuning</text>
<text x="100" y="414" font-size="12.5" fill="#c3c8d0">S6–S8, S10–S15</text>
<rect x="24" y="248" width="356" height="74" rx="8" fill="#262c36" stroke="#7f9fcf" stroke-width="2"/>
<rect x="24" y="248" width="62" height="74" rx="8" fill="#7f9fcf"/><rect x="78" y="248" width="8" height="74" fill="#7f9fcf"/>
<text x="55" y="292.0" text-anchor="middle" font-size="20" font-weight="700" fill="#0d1117">09</text>
<text x="100" y="279" font-size="14.5" font-weight="600" fill="#e5e7eb">Model deployment</text>
<text x="100" y="302" font-size="12.5" fill="#c3c8d0">S16</text>
<rect x="24" y="136" width="356" height="74" rx="8" fill="#262c36" stroke="#7f9fcf" stroke-width="2"/>
<rect x="24" y="136" width="62" height="74" rx="8" fill="#7f9fcf"/><rect x="78" y="136" width="8" height="74" fill="#7f9fcf"/>
<text x="55" y="180.0" text-anchor="middle" font-size="20" font-weight="700" fill="#0d1117">10</text>
<text x="100" y="167" font-size="14.5" font-weight="600" fill="#e5e7eb">Model monitoring and maintenance</text>
<text x="100" y="190" font-size="12.5" fill="#c3c8d0">S16</text>
<text x="600.0" y="205" text-anchor="middle" font-size="24" font-weight="700" fill="#e5e7eb">Machine learning lifecycle</text>
<text x="600.0" y="236" text-anchor="middle" font-size="13" fill="#c3c8d0">Introduced in Session 6; steps 02–04 build on Sessions 3–5</text>
</svg>
